<svg xmlns="http://www.w3.org/2000/svg" width="64" height="64" viewBox="0 0 64 64">
    <rect width="64" height="64" fill="#0D0D0D"/>
    <circle cx="32" cy="32" r="31.36" fill="none" stroke="#D4AF37" stroke-width="2" opacity="0.4"/>
    <line x1="27.84" y1="3.5199999999999982" x2="36.16" y2="3.519999999999999" stroke="#D4AF37" stroke-width="2" stroke-linecap="round"/><line x1="27.84" y1="-1.2800000000000014" x2="36.16" y2="-1.280000000000001" stroke="#D4AF37" stroke-width="2" stroke-linecap="round"/><line x1="27.84" y1="-6.080000000000001" x2="36.16" y2="-6.080000000000001" stroke="#D4AF37" stroke-width="2" stroke-linecap="round"/><line x1="49.19683691845684" y1="8.92003466207109" x2="55.07996533792891" y2="14.803163081543167" stroke="#D4AF37" stroke-width="2" stroke-linecap="round"/><line x1="52.59094946815227" y1="5.525922112375662" x2="58.47407788762434" y2="11.409050531847738" stroke="#D4AF37" stroke-width="2" stroke-linecap="round"/><line x1="55.985062017847696" y1="2.1318095626802345" x2="57.65383402144795" y2="3.8005815662804867" stroke="#D4AF37" stroke-width="2" stroke-linecap="round"/><line x1="60.199418433719515" y1="6.346165978552058" x2="61.86819043731977" y2="8.014937982152311" stroke="#D4AF37" stroke-width="2" stroke-linecap="round"/><line x1="60.480000000000004" y1="27.84" x2="60.480000000000004" y2="36.16" stroke="#D4AF37" stroke-width="2" stroke-linecap="round"/><line x1="65.28" y1="27.84" x2="65.28" y2="30.2" stroke="#D4AF37" stroke-width="2" stroke-linecap="round"/><line x1="65.28" y1="33.8" x2="65.28" y2="36.16" stroke="#D4AF37" stroke-width="2" stroke-linecap="round"/><line x1="70.08" y1="27.84" x2="70.08" y2="36.16" stroke="#D4AF37" stroke-width="2" stroke-linecap="round"/><line x1="55.07996533792891" y1="49.19683691845684" x2="53.41119333432866" y2="50.86560892205709" stroke="#D4AF37" stroke-width="2" stroke-linecap="round"/><line x1="50.86560892205709" y1="53.41119333432866" x2="49.19683691845684" y2="55.07996533792891" stroke="#D4AF37" stroke-width="2" stroke-linecap="round"/><line x1="58.47407788762434" y1="52.59094946815227" x2="56.80530588402409" y2="54.25972147175252" stroke="#D4AF37" stroke-width="2" stroke-linecap="round"/><line x1="54.25972147175252" y1="56.80530588402409" x2="52.59094946815227" y2="58.47407788762434" stroke="#D4AF37" stroke-width="2" stroke-linecap="round"/><line x1="61.86819043731977" y1="55.985062017847696" x2="55.985062017847696" y2="61.86819043731977" stroke="#D4AF37" stroke-width="2" stroke-linecap="round"/><line x1="36.16" y1="60.480000000000004" x2="27.84" y2="60.480000000000004" stroke="#D4AF37" stroke-width="2" stroke-linecap="round"/><line x1="36.16" y1="65.28" x2="33.8" y2="65.28" stroke="#D4AF37" stroke-width="2" stroke-linecap="round"/><line x1="30.2" y1="65.28" x2="27.84" y2="65.28" stroke="#D4AF37" stroke-width="2" stroke-linecap="round"/><line x1="36.16" y1="70.08" x2="33.8" y2="70.08" stroke="#D4AF37" stroke-width="2" stroke-linecap="round"/><line x1="30.2" y1="70.08" x2="27.84" y2="70.08" stroke="#D4AF37" stroke-width="2" stroke-linecap="round"/><line x1="14.803163081543167" y1="55.07996533792891" x2="13.134391077942913" y2="53.41119333432866" stroke="#D4AF37" stroke-width="2" stroke-linecap="round"/><line x1="10.588806665671342" y1="50.86560892205709" x2="8.920034662071089" y2="49.19683691845684" stroke="#D4AF37" stroke-width="2" stroke-linecap="round"/><line x1="11.409050531847738" y1="58.47407788762434" x2="5.525922112375662" y2="52.59094946815227" stroke="#D4AF37" stroke-width="2" stroke-linecap="round"/><line x1="8.014937982152311" y1="61.86819043731977" x2="2.1318095626802345" y2="55.985062017847696" stroke="#D4AF37" stroke-width="2" stroke-linecap="round"/><line x1="3.519999999999999" y1="36.16000000000001" x2="3.5199999999999987" y2="33.80000000000001" stroke="#D4AF37" stroke-width="2" stroke-linecap="round"/><line x1="3.5199999999999987" y1="30.200000000000006" x2="3.5199999999999982" y2="27.840000000000007" stroke="#D4AF37" stroke-width="2" stroke-linecap="round"/><line x1="-1.2800000000000007" y1="36.16000000000001" x2="-1.2800000000000016" y2="27.840000000000007" stroke="#D4AF37" stroke-width="2" stroke-linecap="round"/><line x1="-6.08" y1="36.16000000000001" x2="-6.08" y2="33.80000000000001" stroke="#D4AF37" stroke-width="2" stroke-linecap="round"/><line x1="-6.080000000000001" y1="30.200000000000006" x2="-6.080000000000001" y2="27.840000000000007" stroke="#D4AF37" stroke-width="2" stroke-linecap="round"/><line x1="8.920034662071084" y1="14.803163081543167" x2="10.588806665671335" y2="13.134391077942913" stroke="#D4AF37" stroke-width="2" stroke-linecap="round"/><line x1="13.134391077942906" y1="10.588806665671342" x2="14.803163081543158" y2="8.920034662071089" stroke="#D4AF37" stroke-width="2" stroke-linecap="round"/><line x1="5.525922112375655" y1="11.409050531847738" x2="7.194694115975907" y2="9.740278528247485" stroke="#D4AF37" stroke-width="2" stroke-linecap="round"/><line x1="9.740278528247478" y1="7.194694115975914" x2="11.409050531847729" y2="5.525922112375662" stroke="#D4AF37" stroke-width="2" stroke-linecap="round"/><line x1="2.131809562680227" y1="8.014937982152311" x2="3.800581566280479" y2="6.346165978552058" stroke="#D4AF37" stroke-width="2" stroke-linecap="round"/><line x1="6.34616597855205" y1="3.8005815662804867" x2="8.014937982152302" y2="2.131809562680234" stroke="#D4AF37" stroke-width="2" stroke-linecap="round"/>
    <path d="M 32 2.5599999999999987 A 29.44 29.44 0 0 1 32 61.44 A 14.72 14.72 0 0 1 32 32 A 14.72 14.72 0 0 0 32 2.5599999999999987 Z" fill="#F5D77A"/>
    <circle cx="32" cy="24.64" r="3.68" fill="#0D0D0D"/>
    <circle cx="32" cy="39.36" r="3.68" fill="#F5D77A"/>
    <circle cx="32" cy="32" r="29.44" fill="none" stroke="#D4AF37" stroke-width="2"/>
  </svg>